# xmcd
# 
# Track frame offsets:
#     150
#     17400
#     32950
#     49120
#     62825
#     77505
#     100350
#     115175
#     130975
#     149440
#     168035
#     186810
#     204290
# 
# Disc length: 2972
# 
# Revision: 5
# Processed by: cddbd v1.5.2PL0 Copyright (c) Steve Scherf et al.
# Submitted via: fre:ac v1.1beta1pre5
# 
DISCID=aa0b9a0d
DTITLE=Leningrad Cowboys - Go Space
DYEAR=1996
DGENRE=Rock
TTITLE0=Where's The Moon
TTITLE1=Space Tractor
TTITLE2=Universal Fields
TTITLE3=Jupiter Calling
TTITLE4=Galina
TTITLE5=Leningrad
TTITLE6=Ulan Bator Girls
TTITLE7=Brave New World
TTITLE8=Nadja
TTITLE9=Matushka
TTITLE10=Zastarovje
TTITLE11=L.A. Doga Beach
TTITLE12=Little Green Men
EXTD=
EXTT0=
EXTT1=
EXTT2=
EXTT3=
EXTT4=
EXTT5=
EXTT6=
EXTT7=
EXTT8=
EXTT9=
EXTT10=
EXTT11=
EXTT12=
PLAYORDER=
